<?xml version="1.0" encoding="utf-8"?>
<!-- Generator: Adobe Illustrator 25.2.1, SVG Export Plug-In . SVG Version: 6.00 Build 0)  -->
<svg version="1.1" id="Layer_1" xmlns="http://www.w3.org/2000/svg" xmlns:xlink="http://www.w3.org/1999/xlink" x="0px" y="0px"
	 viewBox="0 0 16 16" style="enable-background:new 0 0 16 16;" xml:space="preserve">
<style type="text/css">
	.st0{fill:#FFFFFF;}
</style>
<path class="st0" d="M12.8,11.6L9.2,8l3.6-3.6c0,0,0,0,0,0l-1.2-1.2c0,0,0,0,0,0L8,6.8C6.8,5.6,5.6,4.4,4.4,3.2L3.2,4.4
	C4.4,5.6,5.6,6.8,6.8,8l-3.6,3.6c0,0,0,0,0,0l1.2,1.2c0,0,0,0,0,0L8,9.2l3.6,3.6c0,0,0,0,0.1,0L12.8,11.6
	C12.8,11.6,12.8,11.6,12.8,11.6z"/>
</svg>
