<svg id="Capa_1" enable-background="new 0 0 512 512" height="512" viewBox="0 0 512 512" width="512" xmlns="http://www.w3.org/2000/svg"><g><path d="m512 256c0 73.22-30.75 139.27-80.03 185.93-36.76 34.79-83.81 26.86-136.12 35.03-2.76.43-5.53.82-8.31 1.17-2.76.34-5.52.63-8.3.88-7.65.69-15.41 1.04-23.24 1.04s-15.59-.35-23.24-1.04c-2.78-.25-5.54-.54-8.3-.88-2.78-.35-5.55-.74-8.31-1.17-52.31-8.17-99.36-.24-136.12-35.03-49.28-46.66-80.03-112.71-80.03-185.93 0-7.04.28-14 .85-20.9 0 0-.01 0 0-.01 4.45-55.09 26.35-105.25 60.16-144.96 46.95-55.15 116.89-90.13 194.99-90.13 64.88 0 124.13 24.14 169.25 63.93 43.15 38.05 73.38 90.42 83.25 149.67 2.3 13.79 3.5 27.96 3.5 42.4z" fill="#b2e5f7"/><path d="m508.5 213.6h-18.59c-7.31 0-13.94-2.97-18.74-7.76-4.79-4.8-7.76-11.42-7.76-18.74 0-14.64-11.87-26.51-26.51-26.51h-75.57c-14.64 0-26.51-11.87-26.51-26.5v-.01c0-14.63 11.87-26.5 26.51-26.5h31.12c7.32 0 13.95-2.97 18.74-7.76 4.79-4.8 7.76-11.43 7.76-18.75 0-6.53 2.37-12.52 6.3-17.14 43.15 38.05 73.38 90.42 83.25 149.67z" fill="#d0f5ff"/><path d="m184.92 222.66c0 14.64-11.87 26.5-26.51 26.5h-134.16c-7.32 0-13.95-2.96-18.74-7.76-1.85-1.85-3.42-3.97-4.66-6.3 0 0-.01 0 0-.01 4.45-55.09 26.35-105.25 60.16-144.96h44.64c7.31 0 13.94 2.97 18.74 7.77 4.79 4.79 7.76 11.42 7.76 18.74 0 14.64-11.87 26.5-26.5 26.5h-16.67c-14.63 0-26.5 11.87-26.5 26.51s11.87 26.5 26.5 26.5h69.43c7.32 0 13.95 2.97 18.75 7.77 4.79 4.79 7.76 11.42 7.76 18.74z" fill="#d0f5ff"/><g><path d="m431.97 261.21v180.72c-12.19 11.54-25.51 21.89-39.78 30.88-8.15 5.12-16.61 9.8-25.34 14-22.091 10.637-45.943 18.19-70.999 22.107-12.986 2.03-26.296-21.644-39.851-21.644s-26.865 23.674-39.851 21.644c-25.056-3.917-48.908-11.47-70.999-22.107-8.73-4.2-17.19-8.88-25.34-14-14.27-8.99-27.59-19.34-39.78-30.88v-180.71l175.97-236.46z" fill="#4e5959"/><path d="m431.968 261.205v88.357l-175.965-236.448-175.975 236.459v-88.357l175.975-236.459z" fill="#333d3d"/><path d="m455.898 338.412-199.898-268.611-199.898 268.611c-6.587 8.851-19.101 10.686-27.952 4.1l-10.266-7.64c-8.851-6.587-10.686-19.101-4.1-27.952l220.163-295.842c10.992-14.771 33.114-14.771 44.106 0l220.163 295.841c6.587 8.851 4.751 21.366-4.1 27.952l-10.266 7.64c-8.851 6.587-21.366 4.751-27.952-4.099z" fill="#c9535d"/><g fill="#b53e4e"><path d="m41.784 334.871c-8.851-6.587-10.687-19.101-4.1-27.952l220.163-295.841c2.777-3.731 6.265-6.516 10.103-8.363-11.356-5.462-25.788-2.677-34.003 8.363l-220.162 295.841c-6.587 8.851-4.751 21.366 4.1 27.952l10.266 7.64c7.258 5.402 16.976 5.13 23.872-.021z"/><path d="m479.798 338.412-211.848-284.668-11.95 16.057 199.898 268.61c6.587 8.851 19.102 10.686 27.952 4.099l.028-.021c-1.513-1.129-2.895-2.485-4.08-4.077z"/></g><g><path d="m128.117 270.339h63.089v86.964h-63.089z" fill="#8cd6e3"/><path d="m191.21 262.03h-63.09c-4.59 0-8.31 3.72-8.31 8.31v86.96c0 4.59 3.72 8.31 8.31 8.31h63.09c4.58 0 8.3-3.72 8.3-8.31v-86.96c0-4.59-3.72-8.31-8.3-8.31zm-8.31 86.96h-46.47v-35.56h46.47zm0-52.17h-46.47v-18.17h46.47z" fill="#c9535d"/></g><g><path d="m224.456 270.339h63.089v86.964h-63.089z" fill="#8cd6e3"/><path d="m287.544 262.03h-63.089c-4.588 0-8.309 3.72-8.309 8.309v86.965c0 4.589 3.72 8.309 8.309 8.309h63.089c4.588 0 8.308-3.72 8.308-8.309v-86.965c.001-4.589-3.719-8.309-8.308-8.309zm-8.308 16.617v18.169h-46.472v-18.169zm-46.472 70.348v-35.562h46.472v35.562z" fill="#c9535d"/></g><g><path d="m320.794 270.339h63.089v86.964h-63.089z" fill="#8cd6e3"/><path d="m383.88 262.03h-63.09c-4.58 0-8.3 3.72-8.3 8.31v86.96c0 4.59 3.72 8.31 8.3 8.31h63.09c4.59 0 8.31-3.72 8.31-8.31v-86.96c0-4.59-3.72-8.31-8.31-8.31zm-8.31 86.96h-46.47v-35.56h46.47zm0-52.17h-46.47v-18.17h46.47z" fill="#c9535d"/></g><path d="m128.12 262.03h17.06l-25.37 34.09v-25.78c0-4.59 3.72-8.31 8.31-8.31z" fill="#b53e4e"/><path d="m392.19 270.34v25.77l-25.36-34.08h17.05c4.59 0 8.31 3.72 8.31 8.31z" fill="#b53e4e"/><g><g><path d="m128.117 391.537h63.089v86.964h-63.089z" fill="#8cd6e3"/><path d="m191.21 383.23h-63.09c-4.59 0-8.31 3.72-8.31 8.31v81.27c8.15 5.12 16.61 9.8 25.34 14h46.06c4.58 0 8.3-3.72 8.3-8.31v-86.96c0-4.59-3.72-8.31-8.3-8.31zm-8.31 86.96h-46.47v-35.56h46.47zm0-52.18h-46.47v-18.16h46.47z" fill="#c9535d"/></g><g><path d="m287.54 391.54v118.54c-2.76.34-5.52.63-8.3.88-7.65.69-15.41 1.04-23.24 1.04s-15.59-.35-23.24-1.04c-2.78-.25-5.54-.54-8.3-.88v-118.54z" fill="#b53e4e"/><path d="m287.54 383.23h-63.08c-4.59 0-8.31 3.72-8.31 8.31v117.37c5.48.86 11.02 1.55 16.61 2.05v-111.11h46.48v111.11c5.59-.5 11.13-1.19 16.61-2.05v-117.37c0-4.59-3.72-8.31-8.31-8.31z" fill="#c9535d"/></g><g><path d="m320.794 391.537h63.089v86.964h-63.089z" fill="#8cd6e3"/><path d="m383.88 383.23h-63.09c-4.58 0-8.3 3.72-8.3 8.31v86.96c0 4.59 3.72 8.31 8.3 8.31h46.06c8.73-4.2 17.19-8.88 25.34-14v-81.27c0-4.59-3.72-8.31-8.31-8.31zm-8.31 86.96h-46.47v-35.56h46.47zm0-52.18h-46.47v-18.16h46.47z" fill="#c9535d"/></g></g><path d="m255.999 149.375c-22.009 0-39.851 17.842-39.851 39.851v40.327c0 7.801 6.324 14.125 14.125 14.125h51.453c7.801 0 14.125-6.324 14.125-14.125v-40.327c-.001-22.009-17.843-39.851-39.852-39.851z" fill="#c9535d"/><path d="m232.147 227.679v-38.452c0-13.151 10.7-23.851 23.852-23.851s23.851 10.7 23.851 23.851v38.452z" fill="#8cd6e3"/></g><circle cx="269.896" cy="455.313" fill="#ededed" r="7.091"/></g></svg>