<svg id="Capa_1" enable-background="new 0 0 512 512" height="512" viewBox="0 0 512 512" width="512" xmlns="http://www.w3.org/2000/svg"><g><path d="m512 256c0 40.91-9.6 79.57-26.66 113.87-14.53 29.21-34.47.897-58.52 22.447-45.31 40.62-105.18 65.33-170.82 65.33s-125.51-24.71-170.82-65.33c-24.05-21.55-43.99 6.763-58.52-22.447-17.06-34.3-26.66-72.96-26.66-113.87 0-141.38 114.62-256 256-256s256 114.62 256 256z" fill="#b2e5f7"/><path d="m485.34 145.56v224.31c-10.23 20.56-23.14 39.55-38.27 56.51-6.37 7.14-19.99 13.91-27.11 20.29h-327.75c-7.12-6.38-20.91-13.15-27.28-20.29-5.56-6.23-10.82-12.74-15.76-19.5-8.5-11.63-16.04-24.01-22.51-37.01v-224.31z" fill="#ededed"/><path d="m49.17 161.32v245.56c-8.5-11.63-16.04-24.01-22.51-37.01v-208.55z" fill="#d1d1d1"/><g><path d="m46.778 196.067h97.957v72.951h-97.957z" fill="#598f98"/><path d="m144.735 190.288h-97.957c-3.192 0-5.779 2.587-5.779 5.779v72.951c0 3.192 2.587 5.779 5.779 5.779h97.957c3.192 0 5.779-2.587 5.779-5.779v-72.951c0-3.192-2.587-5.779-5.779-5.779zm-92.178 11.558h19.866v61.393h-19.866zm31.425 61.393v-61.393h23.55v61.393zm54.974 0h-19.866v-61.393h19.866z" fill="#f4d84f"/><g fill="#efc24d"><path d="m107.532 201.846h6.11v61.393h-6.11z"/><path d="m72.424 201.846h6.11v61.393h-6.11z"/><path d="m47.109 269.018v-72.951c0-3.192 2.587-5.779 5.779-5.779h-6.11c-3.192 0-5.779 2.587-5.779 5.779v72.951c0 3.192 2.587 5.779 5.779 5.779h6.11c-3.192 0-5.779-2.587-5.779-5.779z"/><path d="m138.956 201.846h6.11v61.393h-6.11z"/></g><path d="m144.735 256.05h-97.957c-5.549 0-10.047 4.498-10.047 10.047 0 5.549 4.498 10.047 10.047 10.047h97.957c5.549 0 10.047-4.498 10.047-10.047 0-5.548-4.498-10.047-10.047-10.047z" fill="#e89f4b"/><path d="m54.501 273.208c1.82 1.81 4.34 2.94 7.11 2.94h-14.83c-2.78 0-5.29-1.13-7.11-2.94-1.81-1.82-2.94-4.33-2.94-7.11 0-5.55 4.5-10.05 10.05-10.05h14.83c-5.55 0-10.05 4.5-10.05 10.05 0 2.78 1.12 5.29 2.94 7.11z" fill="#d88330"/></g><g><path d="m46.778 308.073h97.957v72.951h-97.957z" fill="#598f98"/><path d="m144.735 302.294h-97.957c-3.192 0-5.779 2.587-5.779 5.779v72.951c0 3.192 2.587 5.779 5.779 5.779h97.957c3.192 0 5.779-2.587 5.779-5.779v-72.951c0-3.192-2.587-5.779-5.779-5.779zm-92.178 11.558h19.866v61.393h-19.866zm31.425 61.393v-61.393h23.55v61.393zm54.974 0h-19.866v-61.393h19.866z" fill="#f4d84f"/><g fill="#efc24d"><path d="m107.532 313.852h6.11v61.393h-6.11z"/><path d="m72.424 313.852h6.11v61.393h-6.11z"/><path d="m47.109 381.024v-72.951c0-3.192 2.587-5.779 5.779-5.779h-6.11c-3.192 0-5.779 2.587-5.779 5.779v72.951c0 3.192 2.587 5.779 5.779 5.779h6.11c-3.192 0-5.779-2.588-5.779-5.779z"/><path d="m138.956 313.852h6.11v61.393h-6.11z"/></g><path d="m144.735 368.056h-97.957c-5.549 0-10.047 4.498-10.047 10.047 0 5.549 4.498 10.047 10.047 10.047h97.957c5.549 0 10.047-4.498 10.047-10.047 0-5.549-4.498-10.047-10.047-10.047z" fill="#e89f4b"/><path d="m54.501 385.213c1.82 1.81 4.34 2.94 7.11 2.94h-14.83c-2.78 0-5.29-1.13-7.11-2.94-1.81-1.82-2.94-4.33-2.94-7.11 0-5.55 4.5-10.05 10.05-10.05h14.83c-5.55 0-10.05 4.5-10.05 10.05 0 2.78 1.12 5.29 2.94 7.11z" fill="#d88330"/></g><g><path d="m370.575 196.067h97.957v72.951h-97.957z" fill="#598f98"/><path d="m468.532 190.288h-97.957c-3.192 0-5.779 2.587-5.779 5.779v72.951c0 3.192 2.587 5.779 5.779 5.779h97.957c3.192 0 5.779-2.587 5.779-5.779v-72.951c0-3.192-2.587-5.779-5.779-5.779zm-92.178 11.558h19.866v61.393h-19.866zm31.425 61.393v-61.393h23.55v61.393zm54.974 0h-19.866v-61.393h19.866z" fill="#f4d84f"/><g fill="#efc24d"><path d="m431.328 201.846h6.11v61.393h-6.11z"/><path d="m396.22 201.846h6.11v61.393h-6.11z"/><path d="m370.906 269.018v-72.951c0-3.192 2.587-5.779 5.779-5.779h-6.11c-3.192 0-5.779 2.587-5.779 5.779v72.951c0 3.192 2.587 5.779 5.779 5.779h6.11c-3.192 0-5.779-2.587-5.779-5.779z"/><path d="m462.753 201.846h6.11v61.393h-6.11z"/></g><path d="m468.532 256.05h-97.957c-5.549 0-10.047 4.498-10.047 10.047 0 5.549 4.498 10.047 10.047 10.047h97.957c5.549 0 10.047-4.498 10.047-10.047 0-5.548-4.498-10.047-10.047-10.047z" fill="#e89f4b"/><path d="m378.298 273.208c1.82 1.81 4.34 2.94 7.11 2.94h-14.83c-2.78 0-5.29-1.13-7.11-2.94-1.81-1.82-2.94-4.33-2.94-7.11 0-5.55 4.5-10.05 10.05-10.05h14.83c-5.55 0-10.05 4.5-10.05 10.05 0 2.78 1.12 5.29 2.94 7.11z" fill="#d88330"/></g><g><path d="m370.575 308.073h97.957v72.951h-97.957z" fill="#598f98"/><path d="m468.532 302.294h-97.957c-3.192 0-5.779 2.587-5.779 5.779v72.951c0 3.192 2.587 5.779 5.779 5.779h97.957c3.192 0 5.779-2.587 5.779-5.779v-72.951c0-3.192-2.587-5.779-5.779-5.779zm-92.178 11.558h19.866v61.393h-19.866zm31.425 61.393v-61.393h23.55v61.393zm54.974 0h-19.866v-61.393h19.866z" fill="#f4d84f"/><g fill="#efc24d"><path d="m431.328 313.852h6.11v61.393h-6.11z"/><path d="m396.22 313.852h6.11v61.393h-6.11z"/><path d="m370.906 381.024v-72.951c0-3.192 2.587-5.779 5.779-5.779h-6.11c-3.192 0-5.779 2.587-5.779 5.779v72.951c0 3.192 2.587 5.779 5.779 5.779h6.11c-3.192 0-5.779-2.588-5.779-5.779z"/><path d="m462.753 313.852h6.11v61.393h-6.11z"/></g><path d="m468.532 368.056h-97.957c-5.549 0-10.047 4.498-10.047 10.047 0 5.549 4.498 10.047 10.047 10.047h97.957c5.549 0 10.047-4.498 10.047-10.047 0-5.549-4.498-10.047-10.047-10.047z" fill="#e89f4b"/><path d="m378.298 385.213c1.82 1.81 4.34 2.94 7.11 2.94h-14.83c-2.78 0-5.29-1.13-7.11-2.94-1.81-1.82-2.94-4.33-2.94-7.11 0-5.55 4.5-10.05 10.05-10.05h14.83c-5.55 0-10.05 4.5-10.05 10.05 0 2.78 1.12 5.29 2.94 7.11z" fill="#d88330"/></g><path d="m485.34 145.56v38.91c-1.83.38-3.74.58-5.71.58h-447.26c-1.97 0-3.88-.2-5.71-.58v-38.91z" fill="#d1d1d1"/><path d="m460.09 59.649h-408.18c-11.933 0-22.547 7.582-26.416 18.87l-19.543 57.015c-6.212 18.125 7.256 36.979 26.416 36.979h447.265c19.16 0 32.629-18.855 26.416-36.979l-19.543-57.015c-3.868-11.288-14.483-18.87-26.415-18.87z" fill="#84382a"/><path d="m37.132 135.534c-6.21 18.124 7.256 36.971 26.415 36.971h-31.18c-19.159 0-32.626-18.847-26.415-36.971l19.547-57.014c3.871-11.288 14.48-18.879 26.415-18.879h31.181c-11.935 0-22.545 7.59-26.415 18.879z" fill="#70231b"/><path d="m355.17 142.47v304.2h-192.95v-304.2l12.67-11.88 4.01-3.76 77.1-54.64z" fill="#f4d84f"/><path d="m355.17 142.47v25.81l-99.17-70.29-93.78 66.47v-21.99l12.67-11.88 4.01-3.76 77.1-54.64z" fill="#efc24d"/><path d="m174.89 130.59v316.08h-12.67v-304.2z" fill="#efc24d"/><path d="m373.085 164.139c-3.819 0-7.673-1.142-11.026-3.518l-106.059-75.168-106.058 75.169c-8.605 6.098-20.524 4.067-26.622-4.538-6.099-8.604-4.067-20.523 4.537-26.622l117.101-82.995c6.615-4.689 15.468-4.688 22.085 0l117.101 82.995c8.604 6.098 10.636 18.017 4.538 26.622-3.723 5.251-9.616 8.055-15.597 8.055z" fill="#aa6951"/><g fill="#934e3c"><path d="m149.051 156.084c-6.099-8.604-4.067-20.523 4.537-26.622l115.278-81.702-1.824-1.292c-6.616-4.688-15.469-4.689-22.085 0l-117.101 82.995c-8.604 6.099-10.636 18.017-4.537 26.622 6.098 8.605 18.017 10.635 26.622 4.538l1.942-1.376c-1.035-.933-1.993-1.979-2.832-3.163z"/><path d="m268.866 76.334-12.866 9.119 106.059 75.169c3.353 2.376 7.207 3.518 11.026 3.518 4.632 0 9.199-1.7 12.758-4.898z"/></g><g><path d="m290.411 290.725h-68.821c-10.459 0-18.938 8.479-18.938 18.938v137.003h106.697v-137.003c-.001-10.459-8.479-18.938-18.938-18.938z" fill="#934e3c"/><path d="m218.824 446.667v-137.004c0-1.525 1.24-2.765 2.765-2.765h68.821c1.526 0 2.766 1.241 2.766 2.765v137.003h-74.352z" fill="#aa6951"/><circle cx="273.342" cy="368.64" fill="#934e3c" r="12.368"/></g><g><path d="m192.437 161.318h127.127v94.675h-127.127z" fill="#598f98"/><path d="m319.563 153.818h-127.126c-4.143 0-7.5 3.358-7.5 7.5v94.675c0 4.142 3.357 7.5 7.5 7.5h127.127c4.143 0 7.5-3.358 7.5-7.5v-94.675c-.001-4.142-3.358-7.5-7.501-7.5zm-119.626 15h25.782v79.675h-25.782zm40.782 79.675v-79.675h30.562v79.675zm71.344 0h-25.782v-79.675h25.782z" fill="#ededed"/><g fill="#d1d1d1"><path d="m271.281 168.818h7.929v79.675h-7.929z"/><path d="m225.719 168.818h7.929v79.675h-7.929z"/><path d="m192.866 255.993v-94.675c0-4.142 3.357-7.5 7.5-7.5h-7.929c-4.143 0-7.5 3.358-7.5 7.5v94.675c0 4.142 3.357 7.5 7.5 7.5h7.929c-4.143 0-7.5-3.358-7.5-7.5z"/><path d="m312.063 168.818h7.929v79.675h-7.929z"/></g><path d="m319.564 239.164h-127.127c-7.201 0-13.039 5.838-13.039 13.039 0 7.201 5.838 13.039 13.039 13.039h127.127c7.201 0 13.039-5.838 13.039-13.039 0-7.201-5.838-13.039-13.039-13.039z" fill="#e89f4b"/></g><path d="m447.06 426.38c-46.88 52.54-115.11 85.62-191.06 85.62s-144.18-33.08-191.06-85.62c2.07-.44 4.22-.67 6.42-.67 11.13 0 20.88 5.86 26.38 14.65 5.49-8.79 15.24-14.65 26.37-14.65s20.89 5.86 26.38 14.65c5.49-8.79 15.25-14.65 26.38-14.65s20.88 5.86 26.38 14.65c5.49-8.79 15.24-14.65 26.37-14.65s20.89 5.86 26.38 14.65c5.49-8.79 15.25-14.65 26.38-14.65s20.88 5.86 26.37 14.65c5.5-8.79 15.25-14.65 26.38-14.65s20.89 5.86 26.38 14.65c5.49-8.79 15.25-14.65 26.38-14.65s20.88 5.86 26.37 14.65c5.5-8.79 15.25-14.65 26.38-14.65 2.2 0 4.35.23 6.42.67z" fill="#97d6a8"/></g></svg>