<svg id="Capa_1" enable-background="new 0 0 512 512" height="512" viewBox="0 0 512 512" width="512" xmlns="http://www.w3.org/2000/svg"><g><path d="m28.71 373.89c-18.34-35.28-28.71-75.38-28.71-117.89 0-141.38 114.62-256 256-256s256 114.62 256 256c0 47.71-13.05 92.37-35.79 130.61" fill="#b2e5f7"/><path d="m476.21 159.57v227.04c-24.55 41.31-60.4 75.13-103.29 97.18h-233.84c-28.69-14.75-54.23-34.76-75.34-58.76-13.64-15.5-25.43-32.66-35.03-51.14v-214.32z" fill="#e0e0e0"/><path d="m63.74 159.57v265.46c-13.64-15.5-25.43-32.66-35.03-51.14v-214.32z" fill="#d1d1d1"/><g><path d="m314.235 263.367v150.849c-2.773 2.648-5.574 5.254-8.431 7.804h-115.119v-158.653c0-12.11 9.824-21.92 21.934-21.92h79.696c12.11 0 21.92 9.811 21.92 21.92z" fill="#d1d1d1"/><path d="m209.412 422.016v-158.644c0-1.765 1.436-3.202 3.202-3.202h79.691c1.767 0 3.203 1.437 3.203 3.202v158.644z" fill="#bfbfbf"/><g fill="#598f98"><path d="m236.645 358.191h-8.025c-5.278 0-9.557-4.279-9.557-9.557v-61.172c0-5.278 4.279-9.557 9.557-9.557h8.025c5.278 0 9.557 4.279 9.557 9.557v61.172c0 5.278-4.279 9.557-9.557 9.557z"/><path d="m276.3 358.191h-8.025c-5.278 0-9.557-4.279-9.557-9.557v-61.172c0-5.278 4.279-9.557 9.557-9.557h8.025c5.278 0 9.557 4.279 9.557 9.557v61.172c.001 5.278-4.278 9.557-9.557 9.557z"/></g></g><g><g><g><path d="m118.653 380.708h-42.444c-12.409 0-22.468-10.059-22.468-22.468v-94.325c0-12.408 10.059-22.468 22.468-22.468h42.444c12.409 0 22.468 10.059 22.468 22.468v94.325c0 12.409-10.059 22.468-22.468 22.468z" fill="#598f98"/><path d="m118.653 228.3h-42.444c-19.638 0-35.615 15.977-35.615 35.615v94.325c0 19.638 15.977 35.615 35.615 35.615h42.444c19.638 0 35.615-15.977 35.615-35.615v-94.325c0-19.638-15.977-35.615-35.615-35.615zm9.32 35.615v37.299h-20.681v-46.619h11.361c5.139 0 9.32 4.181 9.32 9.32zm-51.764-9.32h11.362v46.619h-20.682v-37.299c0-5.139 4.181-9.32 9.32-9.32zm-9.32 103.645v-37.305h20.682v46.625h-11.362c-5.139 0-9.32-4.181-9.32-9.32zm51.764 9.32h-11.361v-46.625h20.681v37.305c0 5.139-4.181 9.32-9.32 9.32z" fill="#ededed"/><g fill="#e0e0e0"><path d="m140.739 358.24v-37.305h-12.766v37.305c0 4.66-3.442 8.522-7.915 9.203v.117h11.362c5.138 0 9.319-4.181 9.319-9.32z"/><path d="m127.973 263.915v37.299h12.766v-37.299c0-5.139-4.181-9.32-9.32-9.32h-11.362v.117c4.474.682 7.916 4.543 7.916 9.203z"/><path d="m100.336 367.56v-46.625h-12.766v46.507c.46.07.927.118 1.405.118z"/><path d="m53.36 358.24v-94.325c0-19.638 15.977-35.615 35.615-35.615h-12.766c-19.638 0-35.615 15.977-35.615 35.615v94.325c0 19.638 15.977 35.615 35.615 35.615h12.766c-19.638 0-35.615-15.976-35.615-35.615z"/><path d="m100.336 254.595h-11.361c-.479 0-.946.048-1.405.118v46.501h12.766z"/></g></g></g><g><g><path d="m428.708 380.708h-42.444c-12.409 0-22.468-10.059-22.468-22.468v-94.325c0-12.408 10.059-22.468 22.468-22.468h42.444c12.409 0 22.468 10.059 22.468 22.468v94.325c-.001 12.409-10.06 22.468-22.468 22.468z" fill="#598f98"/><path d="m428.708 228.3h-42.444c-19.638 0-35.615 15.977-35.615 35.615v94.325c0 19.638 15.977 35.615 35.615 35.615h42.444c19.638 0 35.615-15.977 35.615-35.615v-94.325c0-19.638-15.977-35.615-35.615-35.615zm9.32 35.615v37.299h-20.681v-46.619h11.361c5.139 0 9.32 4.181 9.32 9.32zm-51.764-9.32h11.362v46.619h-20.682v-37.299c0-5.139 4.181-9.32 9.32-9.32zm-9.32 103.645v-37.305h20.682v46.625h-11.362c-5.139 0-9.32-4.181-9.32-9.32zm51.764 9.32h-11.361v-46.625h20.681v37.305c0 5.139-4.181 9.32-9.32 9.32z" fill="#ededed"/><g fill="#e0e0e0"><path d="m450.794 358.24v-37.305h-12.766v37.305c0 4.66-3.442 8.522-7.915 9.203v.117h11.362c5.138 0 9.319-4.181 9.319-9.32z"/><path d="m438.028 263.915v37.299h12.766v-37.299c0-5.139-4.181-9.32-9.32-9.32h-11.362v.117c4.473.682 7.916 4.543 7.916 9.203z"/><path d="m410.391 367.56v-46.625h-12.766v46.507c.46.07.927.118 1.405.118z"/><path d="m363.415 358.24v-94.325c0-19.638 15.977-35.615 35.615-35.615h-12.766c-19.638 0-35.615 15.977-35.615 35.615v94.325c0 19.638 15.977 35.615 35.615 35.615h12.766c-19.638 0-35.615-15.976-35.615-35.615z"/><path d="m410.391 254.595h-11.361c-.479 0-.946.048-1.405.118v46.501h12.766z"/></g></g></g></g><path d="m438.296 32.13h-364.592c-14.872 0-27.98 9.765-32.236 24.015l-28.633 95.857h486.329l-28.633-95.857c-4.256-14.251-17.363-24.015-32.235-24.015z" fill="#c9535d"/><path d="m122.958 32.134c-14.87 0-27.98 9.76-32.23 24.01l-28.63 95.86h-49.26l28.63-95.86c4.25-14.25 17.36-24.01 32.23-24.01z" fill="#b53e4e"/><path d="m169.176 414.332h164.616v40.916h-164.616z" fill="#ededed"/><path d="m221.716 455.252h-52.54v-40.92h52.54c-8.77 0-15.88 7.11-15.88 15.88v9.15c0 8.78 7.11 15.89 15.88 15.89z" fill="#e0e0e0"/><path d="m169.176 449.007h164.616v40.916h-164.616z" fill="#e0e0e0"/><path d="m221.716 489.927h-52.54v-40.92h52.54c-8.77 0-15.88 7.11-15.88 15.88v9.15c0 8.78 7.11 15.89 15.88 15.89z" fill="#d1d1d1"/><path d="m333.79 483.32v16.64c-4.36 1.39-8.77 2.67-13.22 3.82-1.68.44-3.37.86-5.07 1.26-19.09 4.56-39.02 6.96-59.5 6.96-23.03 0-45.36-3.04-66.59-8.76-6.86-1.84-13.61-3.96-20.23-6.35v-13.57z" fill="#d1d1d1"/><path d="m221.72 483.32c-8.77 0-15.88 7.11-15.88 15.88v7.88c-5.54-1.1-11.02-2.38-16.43-3.84-6.86-1.84-13.61-3.96-20.23-6.35v-13.57z" fill="#bfbfbf"/><path d="m233.017 9.293-169.584 152.316h385.134l-169.584-152.316c-13.073-11.742-32.893-11.742-45.966 0z" fill="#ededed"/><path d="m128.68 136.609 121.042-108.717c2.214-1.988 4.636-2.405 6.278-2.405s4.064.417 6.278 2.406l121.042 108.716z" fill="#e0e0e0"/><g><path d="m189.414 441.987-68.751-8.514v-251.621h68.751z" fill="#fff"/><path d="m120.663 181.852h68.751v25.307h-68.751z" fill="#ededed"/><path d="m120.663 181.852h28.46v251.621h-28.46z" fill="#ededed"/><path d="m193.234 195.075h-76.39c-7.303 0-13.223-5.92-13.223-13.223 0-7.303 5.92-13.223 13.223-13.223h76.39c7.303 0 13.223 5.92 13.223 13.223 0 7.302-5.92 13.223-13.223 13.223z" fill="#d1d1d1"/><path d="m155.036 195.075h-38.193c-7.305 0-13.223-5.918-13.223-13.223 0-3.652 1.475-6.958 3.87-9.352 2.395-2.395 5.7-3.87 9.353-3.87h38.193c-3.644 0-6.95 1.476-9.345 3.87s-3.878 5.7-3.878 9.352c0 7.304 5.927 13.223 13.223 13.223z" fill="#bfbfbf"/></g><path d="m315.502 181.852h68.751v251.621h-68.751z" fill="#fff"/><path d="m315.502 181.852h68.751v25.307h-68.751z" fill="#ededed"/><path d="m343.963 433.473-28.461 8.514v-260.135h28.461z" fill="#ededed"/><path d="m388.073 195.075h-76.39c-7.303 0-13.223-5.92-13.223-13.223 0-7.303 5.92-13.223 13.223-13.223h76.39c7.303 0 13.223 5.92 13.223 13.223 0 7.302-5.92 13.223-13.223 13.223z" fill="#d1d1d1"/><path d="m349.875 195.075h-38.193c-7.305 0-13.223-5.918-13.223-13.223 0-3.652 1.475-6.958 3.87-9.352 2.395-2.395 5.7-3.87 9.353-3.87h38.193c-3.644 0-6.95 1.476-9.345 3.87s-3.878 5.7-3.878 9.352c0 7.304 5.927 13.223 13.223 13.223z" fill="#bfbfbf"/><circle cx="256" cy="92.066" fill="#ededed" r="31.656"/><circle cx="256" cy="92.066" fill="#333d3d" r="21.897"/><path d="m495.927 175.647h-479.854c-8.877 0-16.073-7.196-16.073-16.072 0-8.877 7.196-16.073 16.073-16.073h479.855c8.877 0 16.073 7.196 16.073 16.073-.001 8.876-7.197 16.072-16.074 16.072z" fill="#b53e4e"/><path d="m57.42 175.645h-41.35c-8.87 0-16.07-7.19-16.07-16.07 0-4.44 1.8-8.46 4.71-11.37 2.91-2.9 6.93-4.7 11.36-4.7h41.35c-4.44 0-8.45 1.8-11.36 4.7-2.91 2.91-4.71 6.93-4.71 11.37 0 8.88 7.2 16.07 16.07 16.07z" fill="#a32a40"/><path d="m189.41 441.99v61.25c-17.6-4.72-34.45-11.28-50.33-19.45-14.73-7.57-28.62-16.53-41.51-26.7v-15.1c0-9.5 7.7-17.19 17.19-17.19h57.47c9.49 0 17.18 7.69 17.18 17.19z" fill="#d1d1d1"/><path d="m146.42 424.8c-9.5 0-17.19 7.69-17.19 17.19v36.45c-11.1-6.33-21.68-13.48-31.66-21.35v-15.1c0-9.5 7.7-17.19 17.19-17.19z" fill="#bfbfbf"/><path d="m407.35 441.99v20.49c-10.86 7.97-22.37 15.1-34.43 21.31-16.48 8.48-34.01 15.23-52.35 19.99h-5.07v-61.79c0-9.5 7.7-17.19 17.19-17.19h57.47c9.49 0 17.19 7.69 17.19 17.19z" fill="#d1d1d1"/><path d="m364.35 424.8c-9.5 0-17.19 7.69-17.19 17.19v53.3c-8.64 3.29-17.52 6.14-26.59 8.49-1.68.44-3.37.86-5.07 1.26v-63.05c0-9.5 7.7-17.19 17.19-17.19z" fill="#bfbfbf"/></g></svg>