<svg id="Capa_1" enable-background="new 0 0 512 512" height="512" viewBox="0 0 512 512" width="512" xmlns="http://www.w3.org/2000/svg"><g><path d="m512 256c0 95.16-51.93 178.2-128.99 222.31-10.67 6.12-21.83-24.262-33.39-19.712-4.8 1.89-9.67 39.372-14.61 40.972-24.88 8.07-51.44 12.43-79.01 12.43s-54.13-4.36-79.01-12.43c-11.51-3.73-22.66-45.227-33.39-50.487-4.96-2.42-9.83 31.967-14.61 29.227-77.06-44.11-128.99-127.15-128.99-222.31 0-141.38 114.62-256 256-256s256 114.62 256 256z" fill="#b2e5f7"/><path d="m157.88 371.61c0 14.64-11.87 26.51-26.51 26.51h-88.32c-27.19-40.66-43.05-89.54-43.05-142.12 0-5.68.19-11.32.55-16.91h78.06c7.32 0 13.95 2.97 18.74 7.76s7.76 11.42 7.76 18.74c0 14.64-11.86 26.51-26.5 26.51h-16.66c-14.64 0-26.51 11.86-26.51 26.5s11.87 26.51 26.51 26.51h69.42c7.32 0 13.95 2.97 18.75 7.76 4.79 4.79 7.76 11.42 7.76 18.74z" fill="#d0f5ff"/><path d="m512 256c0 13.16-.99 26.09-2.92 38.71h-26.49c-7.32 0-13.95-2.97-18.74-7.77-4.79-4.79-7.76-11.42-7.76-18.74 0-14.64-11.87-26.5-26.51-26.5h-75.58c-7.32 0-13.94-2.97-18.74-7.76-4.8-4.8-7.76-11.43-7.76-18.75 0-14.64 11.86-26.5 26.5-26.5h31.13c7.31 0 13.94-2.97 18.74-7.77 4.79-4.79 7.76-11.42 7.76-18.74 0-14.64 11.87-26.5 26.51-26.5h43.87c19.14 35.87 29.99 76.83 29.99 120.32z" fill="#d0f5ff"/><g><path d="m162.834 376.301 172.175 120.151 10.47-21.995-10.47-27.919-95.532-70.237" fill="#70231b"/><path d="m349.163 376.304-36.633 25.561-135.541 94.59-11.668-28.342 11.668-21.572 60.761-44.676 34.771-25.561z" fill="#84382a"/><path d="m176.99 369.19v130.38c-11.51-3.73-22.66-8.25-33.39-13.51-4.96-2.42-9.83-5.01-14.61-7.75v-109.12z" fill="#934e3c"/><path d="m143.6 369.2v116.86c-4.96-2.42-9.83-5.01-14.61-7.75v-109.11z" fill="#84382a"/><path d="m383.01 369.19v109.12c-10.67 6.12-21.83 11.48-33.39 16.03-4.8 1.89-9.67 3.63-14.61 5.23v-130.38z" fill="#934e3c"/><g fill="#84382a"><path d="m349.62 369.2v125.14c-4.8 1.89-9.67 3.63-14.61 5.23v-130.37z"/><path d="m128.987 369.192h48.001v32.673h-48.001z"/><path d="m335.011 369.192h48.001v32.673h-48.001z"/></g><path d="m349.163 376.304-36.633 25.561h-74.78l34.771-25.561z" fill="#70231b"/><path d="m397.832 388.889h-283.664c-12.253 0-22.186-9.933-22.186-22.186v-61.823h328.036v61.823c0 12.252-9.933 22.186-22.186 22.186z" fill="#aa6951"/><path d="m135.552 388.892h-21.39c-12.25 0-22.18-9.93-22.18-22.19v-61.82h21.38v61.82c0 12.26 9.94 22.19 22.19 22.19z" fill="#934e3c"/><path d="m91.982 299.763h328.036v56.006h-328.036z" fill="#934e3c"/><path d="m453.026 181.082v123.743c0 14.931-12.104 27.035-27.035 27.035h-339.979c-14.931 0-27.035-12.104-27.035-27.035v-123.743l81.043-76.295 115.977-78.474 115.997 78.494z" fill="#aa6951"/><path d="m109.787 331.865h-23.77c-14.93 0-27.04-12.1-27.04-27.04v-123.74l23.77-22.37v146.11c0 14.94 12.1 27.04 27.04 27.04z" fill="#934e3c"/><path d="m453.026 181.082v29.265l-197.03-135.767-197.019 135.767v-29.265l81.043-76.295 115.976-79.917 115.998 79.938z" fill="#934e3c"/><path d="m466.235 190.194-210.235-144.874-210.235 144.874c-9.307 6.413-22.05 4.068-28.464-5.239-6.414-9.307-4.068-22.051 5.239-28.464l221.847-152.877c6.992-4.818 16.233-4.818 23.225 0l221.848 152.877c9.307 6.413 11.652 19.157 5.239 28.464-6.414 9.307-19.157 11.652-28.464 5.239z" fill="#84382a"/><g fill="#70231b"><path d="m39.034 184.955c-6.414-9.307-4.068-22.051 5.239-28.464l221.847-152.877c.244-.168.497-.317.746-.473-6.894-4.326-15.731-4.177-22.479.473l-221.847 152.877c-9.307 6.413-11.652 19.157-5.239 28.464 6.241 9.056 18.465 11.496 27.695 5.714-2.289-1.437-4.331-3.348-5.962-5.714z"/><path d="m487.968 190.194-221.102-152.363-10.866 7.489 210.235 144.875c6.94 4.783 15.79 4.689 22.502.475-.256-.162-.518-.303-.769-.476z"/></g><path d="m157.414 171.746h197.176v120.355h-197.176z" fill="#333d3d"/><path d="m157.414 171.746h197.176v38.601h-197.176z" fill="#ededed"/><path d="m157.414 305.915c-7.617 0-13.814-6.197-13.814-13.814v-120.355c0-7.617 6.197-13.814 13.814-13.814h197.176c7.617 0 13.814 6.197 13.814 13.814v120.354c0 7.617-6.197 13.814-13.814 13.814h-197.176zm183.361-27.628v-92.727h-169.547v92.726h169.547z" fill="#84382a"/><g fill="#70231b"><path d="m340.775 185.56h11.577v92.726h-11.577z"/><path d="m155.177 292.101v-120.355c0-7.617 6.197-13.814 13.814-13.814h-11.577c-7.617 0-13.814 6.197-13.814 13.814v120.355c0 7.617 6.197 13.814 13.814 13.814h11.577c-7.617 0-13.814-6.197-13.814-13.814z"/></g><path d="m246.24 171.746h19.523v120.355h-19.523z" fill="#84382a"/></g></g></svg>