<svg id="Capa_1" enable-background="new 0 0 512 512" height="512" viewBox="0 0 512 512" width="512" xmlns="http://www.w3.org/2000/svg"><g><path d="m512 256c0 41.33-9.8 80.38-27.2 114.94-42.1 83.66-128.75 141.06-228.8 141.06-82.01 0-155.02-38.57-201.86-98.56-10.31-13.19-19.35-27.42-26.94-42.5-17.4-34.56-27.2-73.61-27.2-114.94 0-141.38 114.62-256 256-256s256 114.62 256 256z" fill="#b2e5f7"/><path d="m484.8 172.98v197.96c-4.71 9.37-9.99 18.41-15.78 27.07-4.15 6.23-8.57 12.26-13.26 18.08-7.37 9.21-15.39 17.9-23.96 25.99-5.56 5.27-11.37 10.28-17.39 15.02-14.24 11.25-29.72 21.01-46.18 29.05-11.24 5.49-22.94 10.18-35.03 14-2.16.68-4.33 1.34-6.52 1.97-7.02 2.01-14.17-23.681-21.42-22.271-15.94 3.11-32.41 4.74-49.26 4.74s-33.32-1.63-49.26-4.74c-1.95-.38-3.9-.78-5.84-1.21-5.25-1.15-10.45 24.951-15.58 23.481-2.19-.63-4.36-1.29-6.52-1.97-12.08-3.82-23.78-8.51-35.02-14-16.47-8.04-31.94-17.8-46.19-29.05-6.02-4.74-11.83-9.75-17.39-15.02-8.57-8.09-16.59-16.78-23.96-25.99-4.69-5.82-9.11-11.85-13.26-18.08-5.79-8.66-11.07-17.7-15.78-27.07v-197.96z" fill="#c9535d"/><path d="m27.195 172.976h457.61v34.046h-457.61z" fill="#b53e4e"/><path d="m54.14 172.98v240.46c-10.31-13.19-19.35-27.42-26.94-42.5v-197.96z" fill="#b53e4e"/><path d="m484.8 235.73v-14h-56.39v-37.74h-14v37.74h-68.71v-37.74h-14v37.74h-68.7v-37.74h-14v37.74h-68.7v-37.74h-14v37.74h-68.71v-37.74h-14v37.74h-56.39v14h15.04v30.07h-15.04v14h56.39v30.07h-56.39v14h15.04v30.07h-15.04v14h56.39v30.07h-40.61c4.15 6.23 8.57 12.26 13.26 18.08v-4.08h68.71v30.07h-44.75c5.56 5.27 11.37 10.28 17.39 15.02v-1.02h68.71v30.07h-22.52c11.24 5.49 22.94 10.18 35.02 14h154.4c12.09-3.82 23.79-8.51 35.03-14h-22.53v-30.07h68.71v1.02c6.02-4.74 11.83-9.75 17.39-15.02h-44.75v-30.07h68.71v4.08c4.69-5.82 9.11-11.85 13.26-18.08h-40.61v-30.07h56.39v-14h-15.04v-30.07h15.04v-14h-56.39v-30.07h56.39v-14h-15.04v-30.07zm-180.45 0h68.7v30.07h-68.7zm-165.4 88.14h68.7v30.07h-68.7zm-41.36-14v-30.07h68.71v30.07zm192.76 14v30.07h-68.7v-30.07zm-27.35-14v-30.07h68.7v30.07zm-14 0h-68.7v-30.07h68.7zm-68.7 58.07h68.7v30.07h-68.7zm41.35 44.07h68.7v30.07h-68.7zm41.35-14v-30.07h68.7v30.07zm41.35-44.07v-30.07h68.7v30.07zm41.35-44.07v-30.07h68.71v30.07zm-124.05-74.14h68.7v30.07h-68.7zm-82.7 0h68.7v30.07h-68.7zm-82.71 30.07v-30.07h68.71v30.07zm0 88.14v-30.07h68.71v30.07zm41.35 44.07v-30.07h68.71v30.07zm41.36 44.07v-30.07h68.7v30.07zm110.05 44.07h-68.7v-30.07h68.7zm82.7 0h-68.7v-30.07h68.7zm41.35-44.07h-68.7v-30.07h68.7zm41.36-44.07h-68.71v-30.07h68.71zm41.35-74.14v30.07h-68.71v-30.07zm0-58.07h-68.71v-30.07h68.71z" fill="#a32a40"/><path d="m426.897 48.006h-341.794c-18.241 0-34.195 12.287-38.853 29.923l-26.95 102.036h473.4l-26.95-102.036c-4.659-17.636-20.612-29.923-38.853-29.923z" fill="#e89f4b"/><path d="m124.86 48.009c-18.24 0-34.19 12.28-38.85 29.92l-26.95 102.03h-39.76l26.95-102.03c4.66-17.64 20.61-29.92 38.85-29.92z" fill="#d88330"/><path d="m493.266 191.71h-474.532c-10.347 0-18.734-8.387-18.734-18.734 0-10.346 8.387-18.734 18.734-18.734h474.532c10.346 0 18.734 8.387 18.734 18.734 0 10.347-8.387 18.734-18.734 18.734z" fill="#d88330"/><g><g><g><path d="m132.195 405.708h-42.444c-12.409 0-22.468-10.059-22.468-22.468v-94.325c0-12.409 10.059-22.468 22.468-22.468h42.444c12.409 0 22.468 10.059 22.468 22.468v94.325c-.001 12.409-10.06 22.468-22.468 22.468z" fill="#598f98"/><path d="m132.194 253.3h-42.443c-19.638 0-35.615 15.977-35.615 35.615v94.325c0 19.638 15.977 35.615 35.615 35.615h42.444c19.638 0 35.615-15.977 35.615-35.615v-94.325c0-19.638-15.977-35.615-35.616-35.615zm9.321 35.615v37.299h-20.681v-46.619h11.361c5.138 0 9.32 4.181 9.32 9.32zm-51.764-9.32h11.362v46.619h-20.682v-37.299c0-5.139 4.181-9.32 9.32-9.32zm-9.32 103.645v-37.305h20.682v46.625h-11.362c-5.139 0-9.32-4.181-9.32-9.32zm51.763 9.32h-11.361v-46.625h20.681v37.305c.001 5.139-4.181 9.32-9.32 9.32z" fill="#ededed"/><g fill="#e0e0e0"><path d="m154.281 383.24v-37.305h-12.766v37.305c0 4.66-3.442 8.522-7.915 9.203v.117h11.362c5.138 0 9.319-4.181 9.319-9.32z"/><path d="m141.515 288.915v37.299h12.766v-37.299c0-5.139-4.181-9.32-9.32-9.32h-11.362v.117c4.473.682 7.916 4.543 7.916 9.203z"/><path d="m113.878 392.56v-46.625h-12.766v46.507c.46.07.927.118 1.405.118z"/><path d="m66.902 383.24v-94.325c0-19.638 15.977-35.615 35.615-35.615h-12.766c-19.638 0-35.615 15.977-35.615 35.615v94.325c0 19.638 15.977 35.615 35.615 35.615h12.766c-19.638 0-35.615-15.976-35.615-35.615z"/><path d="m113.878 279.595h-11.361c-.479 0-.946.048-1.405.118v46.501h12.766z"/></g></g></g><g><g><path d="m422.25 405.708h-42.444c-12.409 0-22.468-10.059-22.468-22.468v-94.325c0-12.409 10.059-22.468 22.468-22.468h42.444c12.409 0 22.468 10.059 22.468 22.468v94.325c-.001 12.409-10.06 22.468-22.468 22.468z" fill="#598f98"/><path d="m422.249 253.3h-42.444c-19.638 0-35.615 15.977-35.615 35.615v94.325c0 19.638 15.977 35.615 35.615 35.615h42.444c19.638 0 35.615-15.977 35.615-35.615v-94.325c0-19.638-15.976-35.615-35.615-35.615zm9.32 35.615v37.299h-20.681v-46.619h11.361c5.139 0 9.32 4.181 9.32 9.32zm-51.763-9.32h11.362v46.619h-20.682v-37.299c-.001-5.139 4.181-9.32 9.32-9.32zm-9.321 103.645v-37.305h20.682v46.625h-11.362c-5.138 0-9.32-4.181-9.32-9.32zm51.764 9.32h-11.361v-46.625h20.681v37.305c0 5.139-4.181 9.32-9.32 9.32z" fill="#ededed"/><g fill="#e0e0e0"><path d="m444.336 383.24v-37.305h-12.766v37.305c0 4.66-3.442 8.522-7.915 9.203v.117h11.362c5.138 0 9.319-4.181 9.319-9.32z"/><path d="m431.569 288.915v37.299h12.766v-37.299c0-5.139-4.181-9.32-9.32-9.32h-11.362v.117c4.474.682 7.916 4.543 7.916 9.203z"/><path d="m403.933 392.56v-46.625h-12.766v46.507c.46.07.927.118 1.405.118z"/><path d="m356.957 383.24v-94.325c0-19.638 15.977-35.615 35.615-35.615h-12.766c-19.638 0-35.615 15.977-35.615 35.615v94.325c0 19.638 15.977 35.615 35.615 35.615h12.766c-19.639 0-35.615-15.976-35.615-35.615z"/><path d="m403.933 279.595h-11.361c-.479 0-.946.048-1.405.118v46.501h12.766z"/></g></g></g></g><g><path d="m326.68 306.38v195.74c-7.02 2.01-14.17 3.73-21.42 5.14-15.94 3.11-32.41-32.168-49.26-32.168s-33.32 35.279-49.26 32.168c-7.25-1.41-14.4-3.13-21.42-5.14v-195.74c0-13.85 11.23-25.09 25.09-25.09h91.18c13.86 0 25.09 11.24 25.09 25.09z" fill="#ededed"/><path d="m225.99 281.29c-13.86 0-25.09 11.24-25.09 25.09v199.67c-5.25-1.15-10.45-2.46-15.58-3.93v-195.74c0-13.85 11.23-25.09 25.09-25.09z" fill="#e0e0e0"/><path d="m305.26 306.38v200.88c-15.94 3.11-32.41 4.74-49.26 4.74s-33.32-1.63-49.26-4.74v-200.88c0-2.02 1.65-3.66 3.67-3.66h91.18c2.02 0 3.67 1.64 3.67 3.66z" fill="#aa6951"/><circle cx="278.976" cy="384.522" fill="#ededed" r="16.386"/></g><path d="m331.92 48.01h85.35v85.35h-85.35z" fill="#c9535d"/><path d="m331.92 48.01h19.497v85.35h-19.497z" fill="#b53e4e"/><path d="m331.92 48.01h85.35v23.629h-85.35z" fill="#b53e4e"/><path d="m417.27 59.87v-11.32h-85.35v11.32h17.67v25.07h-17.67v11.68h52.15v25.07h-52.15v11.67h85.35v-11.67h-21.52v-25.07h21.52v-11.68h-56v-25.07z" fill="#a32a40"/><path d="m421.041 63.392h-92.896c-5.815 0-10.529-4.714-10.529-10.529v-21.762c0-5.815 4.714-10.529 10.529-10.529h92.896c5.815 0 10.529 4.714 10.529 10.529v21.762c-.001 5.815-4.714 10.529-10.529 10.529z" fill="#c9535d"/><path d="m351.417 63.391h-23.27c-5.82 0-10.53-4.71-10.53-10.53v-21.76c0-5.81 4.71-10.53 10.53-10.53h23.27c-5.81 0-10.53 4.72-10.53 10.53v21.76c0 5.82 4.72 10.53 10.53 10.53z" fill="#b53e4e"/></g></svg>