<svg id="Capa_1" enable-background="new 0 0 512 512" height="512" viewBox="0 0 512 512" width="512" xmlns="http://www.w3.org/2000/svg"><g><path d="m512 256c0 70.458-28.464 134.269-74.521 180.559-46.363 46.597-110.552.98-181.479.98-70.692 0-134.692 45.807-181.019-.52s-74.981-110.327-74.981-181.019c0-141.385 114.615-256 256-256s256 114.615 256 256z" fill="#6aa2b2"/><path d="m437.48 45.42v391.14c-5.57 5.59-11.39 10.93-17.45 15.99-4.88 4.08-9.92 7.98-15.1 11.7-5.12 3.67-10.39 7.15-15.79 10.44-4.85 2.96-9.8 5.77-14.86 8.4-5.78 3.02-11.68 5.82-17.71 8.39-5.38 2.31-10.85 4.43-16.4 6.36-2.77.97-5.57 1.89-8.39 2.76-2.78.85-5.58 1.67-8.4 2.43-8.85 2.42-17.9 4.36-27.11 5.81-2.78.44-5.58.84-8.39 1.19-1.09.13-2.17.26-3.26.38-7.45.84-14.99 1.35-22.62 1.52-1.99.05-3.99.07-6 .07-6.54 0-13.03-.24-19.45-.73-4.17-.32-8.32-.73-12.43-1.25-2.54-.31-5.06-.67-7.57-1.06-.28-.03-.54-.08-.82-.12-.06-.01-.13-.02-.19-.03-9.15-1.44-18.12-3.38-26.92-5.77-.1-.03-.19-.05-.29-.08-2.72-.75-5.43-1.53-8.11-2.36-2.82-.87-5.61-1.79-8.39-2.76-5.56-1.94-11.04-4.06-16.42-6.36-6.01-2.57-11.91-5.37-17.67-8.39-4.96-2.58-9.82-5.33-14.58-8.23-.1-.05-.19-.11-.29-.17-5.39-3.29-10.65-6.77-15.77-10.44-1.73-1.23-3.44-2.49-5.13-3.78-3.4-2.55-6.74-5.19-10-7.93-6.06-5.05-11.88-10.39-17.45-15.98v-391.14z" fill="#ededed"/><path d="m101.97 56.24v404.23c-3.4-2.55-6.74-5.19-10-7.93-6.06-5.05-11.88-10.39-17.45-15.98v-380.32z" fill="#d1d1d1"/><g><g><g><path d="m116.47 107.997h63.751v87.878h-63.751z" fill="#6aa2b2"/><path d="m180.222 99.601h-63.752c-4.637 0-8.396 3.759-8.396 8.396v87.878c0 4.637 3.759 8.396 8.396 8.396h63.751c4.637 0 8.396-3.759 8.396-8.396v-87.878c0-4.637-3.759-8.396-8.395-8.396zm-55.356 51.942h16.822v35.935h-16.822zm46.96 35.936h-16.822v-35.935h16.822zm0-52.727h-46.96v-18.36h46.96z" fill="#f4d84f"/><g fill="#efc24d"><path d="m171.826 151.543h8.396v35.935h-8.396z"/><path d="m171.826 116.392h8.396v18.36h-8.396z"/><path d="m116.47 195.875v-87.878c0-4.637 3.759-8.396 8.396-8.396h-8.396c-4.637 0-8.396 3.759-8.396 8.396v87.878c0 4.637 3.759 8.396 8.396 8.396h8.396c-4.636-.001-8.396-3.76-8.396-8.396z"/></g></g></g><g><g><path d="m224.124 107.997h63.751v87.878h-63.751z" fill="#6aa2b2"/><path d="m287.876 99.601h-63.751c-4.637 0-8.396 3.759-8.396 8.396v87.878c0 4.637 3.759 8.396 8.396 8.396h63.751c4.637 0 8.396-3.759 8.396-8.396v-87.878c-.001-4.637-3.76-8.396-8.396-8.396zm-55.356 51.942h16.822v35.935h-16.822zm46.96 35.936h-16.822v-35.935h16.822zm0-52.727h-46.96v-18.36h46.96z" fill="#f4d84f"/><g fill="#efc24d"><path d="m279.48 151.543h8.396v35.935h-8.396z"/><path d="m279.48 116.392h8.396v18.36h-8.396z"/><path d="m224.124 195.875v-87.878c0-4.637 3.759-8.396 8.396-8.396h-8.396c-4.637 0-8.396 3.759-8.396 8.396v87.878c0 4.637 3.759 8.396 8.396 8.396h8.396c-4.636-.001-8.396-3.76-8.396-8.396z"/></g></g></g><g><g><path d="m331.778 107.997h63.751v87.878h-63.751z" fill="#6aa2b2"/><path d="m395.53 99.601h-63.751c-4.637 0-8.396 3.759-8.396 8.396v87.878c0 4.637 3.759 8.396 8.396 8.396h63.751c4.637 0 8.396-3.759 8.396-8.396v-87.878c-.001-4.637-3.76-8.396-8.396-8.396zm-55.356 51.942h16.822v35.935h-16.822zm46.96 35.936h-16.822v-35.935h16.822zm0-52.727h-46.96v-18.36h46.96z" fill="#f4d84f"/><g fill="#efc24d"><path d="m387.134 151.543h8.396v35.935h-8.396z"/><path d="m387.134 116.392h8.396v18.36h-8.396z"/><path d="m331.778 195.875v-87.878c0-4.637 3.759-8.396 8.396-8.396h-8.396c-4.637 0-8.396 3.759-8.396 8.396v87.878c0 4.637 3.759 8.396 8.396 8.396h8.396c-4.636-.001-8.396-3.76-8.396-8.396z"/></g></g></g></g><g><g><g><path d="m116.47 233.027h63.751v87.878h-63.751z" fill="#6aa2b2"/><path d="m180.222 224.631h-63.752c-4.637 0-8.396 3.759-8.396 8.396v87.878c0 4.637 3.759 8.396 8.396 8.396h63.751c4.637 0 8.396-3.759 8.396-8.396v-87.878c0-4.637-3.759-8.396-8.395-8.396zm-55.356 51.943h16.822v35.935h-16.822zm46.96 35.935h-16.822v-35.935h16.822zm0-52.727h-46.96v-18.36h46.96z" fill="#f4d84f"/><g fill="#efc24d"><path d="m171.826 276.574h8.396v35.935h-8.396z"/><path d="m171.826 241.423h8.396v18.36h-8.396z"/><path d="m116.47 320.905v-87.878c0-4.637 3.759-8.396 8.396-8.396h-8.396c-4.637 0-8.396 3.759-8.396 8.396v87.878c0 4.637 3.759 8.396 8.396 8.396h8.396c-4.636-.001-8.396-3.759-8.396-8.396z"/></g></g></g><g><g><path d="m224.124 233.027h63.751v87.878h-63.751z" fill="#6aa2b2"/><path d="m287.876 224.631h-63.751c-4.637 0-8.396 3.759-8.396 8.396v87.878c0 4.637 3.759 8.396 8.396 8.396h63.751c4.637 0 8.396-3.759 8.396-8.396v-87.878c-.001-4.637-3.76-8.396-8.396-8.396zm-55.356 51.943h16.822v35.935h-16.822zm46.96 35.935h-16.822v-35.935h16.822zm0-52.727h-46.96v-18.36h46.96z" fill="#f4d84f"/><g fill="#efc24d"><path d="m279.48 276.574h8.396v35.935h-8.396z"/><path d="m279.48 241.423h8.396v18.36h-8.396z"/><path d="m224.124 320.905v-87.878c0-4.637 3.759-8.396 8.396-8.396h-8.396c-4.637 0-8.396 3.759-8.396 8.396v87.878c0 4.637 3.759 8.396 8.396 8.396h8.396c-4.636-.001-8.396-3.759-8.396-8.396z"/></g></g></g><g><g><path d="m331.778 233.027h63.751v87.878h-63.751z" fill="#6aa2b2"/><path d="m395.53 224.631h-63.751c-4.637 0-8.396 3.759-8.396 8.396v87.878c0 4.637 3.759 8.396 8.396 8.396h63.751c4.637 0 8.396-3.759 8.396-8.396v-87.878c-.001-4.637-3.76-8.396-8.396-8.396zm-55.356 51.943h16.822v35.935h-16.822zm46.96 35.935h-16.822v-35.935h16.822zm0-52.727h-46.96v-18.36h46.96z" fill="#f4d84f"/><g fill="#efc24d"><path d="m387.134 276.574h8.396v35.935h-8.396z"/><path d="m387.134 241.423h8.396v18.36h-8.396z"/><path d="m331.778 320.905v-87.878c0-4.637 3.759-8.396 8.396-8.396h-8.396c-4.637 0-8.396 3.759-8.396 8.396v87.878c0 4.637 3.759 8.396 8.396 8.396h8.396c-4.636-.001-8.396-3.759-8.396-8.396z"/></g></g></g></g><g><g><g><path d="m116.47 358.057h63.751v87.878h-63.751z" fill="#6aa2b2"/><path d="m180.222 349.661h-63.752c-4.637 0-8.396 3.759-8.396 8.396v87.878c0 4.637 3.759 8.396 8.396 8.396h63.751c4.637 0 8.396-3.759 8.396-8.396v-87.878c0-4.637-3.759-8.396-8.395-8.396zm-55.356 51.943h16.822v35.935h-16.822zm46.96 35.935h-16.822v-35.935h16.822zm0-52.727h-46.96v-18.36h46.96z" fill="#f4d84f"/><g fill="#efc24d"><path d="m171.826 401.604h8.396v35.935h-8.396z"/><path d="m171.826 366.453h8.396v18.36h-8.396z"/><path d="m116.47 445.935v-87.878c0-4.637 3.759-8.396 8.396-8.396h-8.396c-4.637 0-8.396 3.759-8.396 8.396v87.878c0 4.637 3.759 8.396 8.396 8.396h8.396c-4.636 0-8.396-3.759-8.396-8.396z"/></g></g></g><g><g><path d="m224.124 358.057h63.751v87.878h-63.751z" fill="#6aa2b2"/><path d="m287.876 349.661h-63.751c-4.637 0-8.396 3.759-8.396 8.396v87.878c0 4.637 3.759 8.396 8.396 8.396h63.751c4.637 0 8.396-3.759 8.396-8.396v-87.878c-.001-4.637-3.76-8.396-8.396-8.396zm-55.356 51.943h16.822v35.935h-16.822zm46.96 35.935h-16.822v-35.935h16.822zm0-52.727h-46.96v-18.36h46.96z" fill="#f4d84f"/><g fill="#efc24d"><path d="m279.48 401.604h8.396v35.935h-8.396z"/><path d="m279.48 366.453h8.396v18.36h-8.396z"/><path d="m224.124 445.935v-87.878c0-4.637 3.759-8.396 8.396-8.396h-8.396c-4.637 0-8.396 3.759-8.396 8.396v87.878c0 4.637 3.759 8.396 8.396 8.396h8.396c-4.636 0-8.396-3.759-8.396-8.396z"/></g></g></g><g><g><path d="m331.778 358.057h63.751v87.878h-63.751z" fill="#6aa2b2"/><path d="m395.53 349.661h-63.751c-4.637 0-8.396 3.759-8.396 8.396v87.878c0 4.637 3.759 8.396 8.396 8.396h63.751c4.637 0 8.396-3.759 8.396-8.396v-87.878c-.001-4.637-3.76-8.396-8.396-8.396zm-55.356 51.943h16.822v35.935h-16.822zm46.96 35.935h-16.822v-35.935h16.822zm0-52.727h-46.96v-18.36h46.96z" fill="#f4d84f"/><g fill="#efc24d"><path d="m387.134 401.604h8.396v35.935h-8.396z"/><path d="m387.134 366.453h8.396v18.36h-8.396z"/><path d="m331.778 445.935v-87.878c0-4.637 3.759-8.396 8.396-8.396h-8.396c-4.637 0-8.396 3.759-8.396 8.396v87.878c0 4.637 3.759 8.396 8.396 8.396h8.396c-4.636 0-8.396-3.759-8.396-8.396z"/></g></g></g></g><g><g><g><path d="m180.22 483.09v17.51c-2.82-.87-5.61-1.79-8.39-2.76-5.56-1.94-11.04-4.06-16.42-6.36-6.01-2.57-11.91-5.37-17.67-8.39z" fill="#6aa2b2"/><path d="m180.22 474.69h-57.35c10.38 6.34 21.25 11.96 32.54 16.79h16.42v6.36c5.42 1.89 10.92 3.59 16.5 5.12.1.03.19.05.29.08v-19.95c0-4.64-3.76-8.4-8.4-8.4z" fill="#f4d84f"/><g fill="#efc24d"><path d="m180.22 491.48v9.12c-2.82-.87-5.61-1.79-8.39-2.76v-6.36z"/><path d="m124.87 474.69c-.59 0-1.16.06-1.71.17-.1-.05-.19-.11-.29-.17z"/></g></g></g><g><g><path d="m287.88 483.09v26.94c-1.09.13-2.17.26-3.26.38-7.45.84-14.99 1.35-22.62 1.52-1.99.05-3.99.07-6 .07-6.54 0-13.03-.24-19.45-.73-4.17-.32-8.32-.73-12.43-1.25v-26.93z" fill="#6aa2b2"/><path d="m287.88 474.69h-63.76c-4.63 0-8.39 3.76-8.39 8.4v25.75c.28.04.54.09.82.12 6.59 1.03 13.26 1.8 20 2.31 6.42.49 12.91.73 19.45.73 2.01 0 4.01-.02 6-.07 7.63-.17 15.17-.68 22.62-1.52 3.91-.43 7.8-.96 11.65-1.57v-25.75c0-4.64-3.76-8.4-8.39-8.4zm-8.4 35.15h-46.96v-18.36h46.96z" fill="#f4d84f"/><g fill="#efc24d"><path d="m279.48 491.483h8.396v18.36h-8.396z"/><path d="m232.52 474.69c-4.64 0-8.4 3.76-8.4 8.4v26.93c-2.54-.31-5.06-.67-7.57-1.06-.28-.03-.54-.08-.82-.12v-25.75c0-4.64 3.76-8.4 8.39-8.4z"/></g></g></g><g><g><path d="m374.28 483.09c-5.78 3.02-11.68 5.82-17.71 8.39-5.38 2.31-10.85 4.43-16.4 6.36-2.77.97-5.57 1.89-8.39 2.76v-17.51z" fill="#6aa2b2"/><path d="m331.78 474.69c-4.64 0-8.4 3.76-8.4 8.4v19.94c5.68-1.54 11.28-3.27 16.79-5.19v-6.36h16.4c11.3-4.82 22.18-10.44 32.57-16.79z" fill="#f4d84f"/><g><path d="m340.17 474.69c-4.63 0-8.39 3.76-8.39 8.4v17.51c-2.78.85-5.58 1.67-8.4 2.43v-19.94c0-4.64 3.76-8.4 8.4-8.4z" fill="#efc24d"/></g></g></g></g><path d="m74.52 40.106h362.96v35.4h-362.96z" fill="#d1d1d1"/><path d="m445.733 27.718h-379.466c-9.777 0-17.703 7.926-17.703 17.703 0 9.777 7.926 17.703 17.703 17.703h379.466c9.777 0 17.703-7.926 17.703-17.703 0-9.777-7.926-17.703-17.703-17.703z" fill="#c9535d"/><path d="m103.454 57.931c3.21 3.21 7.63 5.19 12.52 5.19h-49.7c-4.89 0-9.32-1.98-12.52-5.19-3.21-3.2-5.19-7.62-5.19-12.51 0-9.78 7.93-17.71 17.71-17.71h49.7c-9.78 0-17.7 7.93-17.7 17.71 0 4.89 1.98 9.31 5.18 12.51z" fill="#b53e4e"/></g></svg>