<svg id="Capa_1" enable-background="new 0 0 512 512" height="512" viewBox="0 0 512 512" width="512" xmlns="http://www.w3.org/2000/svg"><g><path d="m512 256c0 40.15-9.25 78.15-25.73 111.97-10.31 21.18-63.867 2.46-79.357 19.87-8.76 9.84-18.27 19.01-28.44 27.4-3.79 3.13-7.68 6.16-11.66 9.07-1.58 1.16-3.17 2.3-4.77 3.42-41.5 29-51.583 59.555-106.043 59.555s-58.739-25.249-100.239-54.249c-1.6-1.12-3.19-2.26-4.77-3.42-3.98-2.91-7.87-5.94-11.66-9.07-10.17-8.39-19.68-17.56-28.44-27.4-15.49-17.41-74.851-3.996-85.161-25.176-16.48-33.82-25.73-71.82-25.73-111.97 0-141.38 114.62-256 256-256s256 114.62 256 256z" fill="#6aa2b2"/><path d="m486.27 200.795v167.175c-10.31 21.18-23.46 40.72-38.95 58.13-8.76 9.84-18.27 19.01-28.44 27.4h-325.76c-10.17-8.39-19.68-17.56-28.44-27.4-15.49-17.41-28.64-36.95-38.95-58.13v-167.175z" fill="#ededed"/><path d="m18.464 182.33h475.071c10.198 0 18.464 8.267 18.464 18.464 0 10.198-8.267 18.464-18.464 18.464h-475.071c-10.197.001-18.464-8.265-18.464-18.463 0-10.198 8.267-18.465 18.464-18.465z" fill="#e0e0e0"/><path d="m139.464 134.797h222.579v292.933h-222.579z" fill="#bfbfbf"/><g><g><path d="m113.945 205.668h65.995v181.304h-65.995z" fill="#e0e0e0"/><path d="m113.945 205.668h65.995v23.015h-65.995z" fill="#d1d1d1"/><path d="m113.945 205.668h21.231v181.304h-21.231z" fill="#d1d1d1"/><path d="m179.94 218.402h-65.995c-6.3 0-11.408-5.107-11.408-11.408v-29.061h88.81v29.061c0 6.3-5.107 11.408-11.407 11.408z" fill="#ededed"/><path d="m143.925 218.402h-29.98c-6.3 0-11.41-5.11-11.41-11.41v-29.06h29.98v29.06c0 6.3 5.11 11.41 11.41 11.41z" fill="#e0e0e0"/><path d="m179.94 363.499h-65.995c-6.3 0-11.408 5.107-11.408 11.408v29.061h88.81v-29.061c0-6.301-5.107-11.408-11.407-11.408z" fill="#ededed"/><path d="m143.925 363.499h-29.98c-6.3 0-11.41 5.11-11.41 11.41v29.06h29.98v-29.06c0-6.3 5.11-11.41 11.41-11.41z" fill="#e0e0e0"/></g><g><path d="m223.004 205.668h65.995v181.304h-65.995z" fill="#e0e0e0"/><path d="m223.004 205.668h65.995v23.015h-65.995z" fill="#d1d1d1"/><path d="m223.004 205.668h21.231v181.304h-21.231z" fill="#d1d1d1"/><path d="m288.999 218.402h-65.995c-6.3 0-11.408-5.107-11.408-11.408v-29.061h88.81v29.061c0 6.3-5.107 11.408-11.407 11.408z" fill="#ededed"/><path d="m252.984 218.402h-29.98c-6.3 0-11.41-5.11-11.41-11.41v-29.06h29.98v29.06c0 6.3 5.11 11.41 11.41 11.41z" fill="#e0e0e0"/><path d="m288.999 363.499h-65.995c-6.3 0-11.408 5.107-11.408 11.408v29.061h88.81v-29.061c0-6.301-5.107-11.408-11.407-11.408z" fill="#ededed"/><path d="m252.984 363.499h-29.98c-6.3 0-11.41 5.11-11.41 11.41v29.06h29.98v-29.06c0-6.3 5.11-11.41 11.41-11.41z" fill="#e0e0e0"/></g><g><path d="m332.063 205.668h65.995v181.304h-65.995z" fill="#e0e0e0"/><path d="m332.063 205.668h65.995v23.015h-65.995z" fill="#d1d1d1"/><path d="m332.063 205.668h21.231v181.304h-21.231z" fill="#d1d1d1"/><path d="m398.058 218.402h-65.995c-6.3 0-11.408-5.107-11.408-11.408v-29.061h88.81v29.061c0 6.3-5.107 11.408-11.407 11.408z" fill="#ededed"/><path d="m362.043 218.402h-29.98c-6.3 0-11.41-5.11-11.41-11.41v-29.06h29.98v29.06c0 6.3 5.11 11.41 11.41 11.41z" fill="#e0e0e0"/><path d="m398.058 363.499h-65.995c-6.3 0-11.408 5.107-11.408 11.408v29.061h88.81v-29.061c0-6.301-5.107-11.408-11.407-11.408z" fill="#ededed"/><path d="m362.043 363.499h-29.98c-6.3 0-11.41 5.11-11.41 11.41v29.06h29.98v-29.06c0-6.3 5.11-11.41 11.41-11.41z" fill="#e0e0e0"/></g></g><path d="m421.81 141.4v31.79c0 9.44-7.66 17.1-17.11 17.1h-297.4c-9.45 0-17.11-7.66-17.11-17.1v-31.79z" fill="#e0e0e0"/><path d="m139.464 190.287h-32.17c-9.44 0-17.1-7.66-17.1-17.1v-31.79h32.16v31.79c0 9.44 7.66 17.1 17.11 17.1z" fill="#d1d1d1"/><path d="m90.19 141.4h331.62v24.95h-331.62z" fill="#d1d1d1"/><path d="m245.252 6.921-171.669 110.541c-16.652 10.722-9.058 36.542 10.748 36.542h343.338c19.805 0 27.399-25.82 10.748-36.542l-171.669-110.541c-6.546-4.215-14.95-4.215-21.496 0z" fill="#ededed"/><path d="m115.313 154.002h-30.99c-19.8 0-27.39-25.82-10.74-36.54l171.67-110.54c6.54-4.21 14.95-4.21 21.49 0l4.75 3.06-166.93 107.48c-16.65 10.72-9.05 36.54 10.75 36.54z" fill="#e0e0e0"/><path d="m421.808 437.542h-331.616v-23.697c0-11.432 9.267-20.699 20.699-20.699h290.218c11.432 0 20.699 9.267 20.699 20.699z" fill="#d1d1d1"/><path d="m447.32 426.1c-13.33 14.98-28.39 28.38-44.87 39.89h-292.9c-16.48-11.51-31.54-24.91-44.87-39.89 3.79-2.83 8.49-4.51 13.59-4.51h355.46c5.1 0 9.8 1.68 13.59 4.51z" fill="#e0e0e0"/><path d="m407.22 462.57c-1.58 1.16-3.17 2.3-4.77 3.42-41.5 29-91.99 46.01-146.45 46.01s-104.95-17.01-146.45-46.01c-1.6-1.12-3.19-2.26-4.77-3.42z" fill="#ededed"/><circle cx="256" cy="86.874" fill="#e0e0e0" r="47.922"/><g fill="#bfbfbf"><circle cx="256" cy="86.874" r="29.443"/><g><path d="m455.562 363.499h-17.118c-7.592 0-13.747-6.155-13.747-13.747v-89.475c0-7.592 6.155-13.747 13.747-13.747h17.118c7.592 0 13.747 6.155 13.747 13.747v89.475c0 7.592-6.155 13.747-13.747 13.747z"/><path d="m73.556 363.499h-17.118c-7.592 0-13.747-6.155-13.747-13.747v-89.475c0-7.592 6.155-13.747 13.747-13.747h17.118c7.592 0 13.747 6.155 13.747 13.747v89.475c-.001 7.592-6.155 13.747-13.747 13.747z"/></g></g></g></svg>