<svg id="Capa_1" enable-background="new 0 0 512 512" height="512" viewBox="0 0 512 512" width="512" xmlns="http://www.w3.org/2000/svg"><g><path d="m512 256c0 54.94-17.31 105.83-46.76 147.53-1.93 2.73-13.812-16.655-15.842-14.005-2.91 3.8-5.93 7.51-9.05 11.14-14.72 17.13-31.68 32.3-50.41 45.04-8.01 5.46-16.35 10.47-24.99 15-35.51 18.66-75.94 29.21-118.84 29.21s-37.283 4.055-72.793-14.605c-8.64-4.53-16.98-9.54-24.99-15-18.73-12.74-35.69-27.91-50.41-45.04-3.12-3.63-6.14-7.34-9.05-11.14-2.03-2.65-40.175 2.13-42.105-.6-29.45-41.7-46.76-92.59-46.76-147.53 0-141.38 114.62-256 256-256s256 114.62 256 256z" fill="#b2e5f7"/><path d="m459.29 281.33v119.748c-2.912 3.799-5.929 18.047-9.047 21.675-4.826 5.616-9.892 11.021-15.183 16.197-6.08 5.96-12.47 11.61-19.13 16.94-.27.22-.54.43-.81.65-4.95 3.934-10.049 7.688-15.288 11.253-4.874 3.317-23.417 2.275-28.523 5.256-3.293 1.922 6.917 7.968 3.533 9.745-35.516 18.653-75.95 29.206-118.842 29.206s-83.324-10.554-118.842-29.207c-4.316-2.267-.301-6.713-4.468-9.215-4.167-2.501-16.514-3.058-20.523-5.785-5.27-3.586-10.399-7.364-15.378-11.323-5.37-4.26-10.56-8.74-15.56-13.43-2.25-2.09-4.46-4.23-6.63-6.41-1.13-1.13-2.24-2.27-3.35-3.43-3.259-3.393-6.425-6.877-9.493-10.447-3.117-3.627-6.134-17.875-9.047-21.675v-119.748z" fill="#f4d84f"/><path d="m59.185 298.183h400.105v19.785h-400.105z" fill="#efc24d"/><path d="m74.6 281.33v155.3c-7.82-7.85-15.14-16.21-21.89-25.02v-130.28z" fill="#efc24d"/><g><path d="m255.802 20.908-209.559 272.876h419.118z" fill="#e89f4b"/><g fill="#333d3d"><path d="m44.4 281.332h420.961v21.851h-420.961z"/><g><path d="m201.753 301.619-92.456-92.456 10.607-10.607 81.849 81.85 47.467-47.467 10.606 10.606z"/><path d="m119.904 296.315-10.607-10.606 81.849-81.85-42.456-42.456 10.607-10.606 53.062 53.062z"/><path d="m392.096 296.315-92.455-92.456 60.613-60.613 10.607 10.607-50.007 50.006 81.849 81.85z"/><path d="m310.247 301.619-60.673-60.674 10.607-10.607 50.066 50.068 81.849-81.85 10.607 10.607z"/></g><path d="m248.505 242.309h15v49.949h-15z"/><path d="m119.171 192.934h271.419v21.851h-271.419z"/><path d="m253.312 123.697-43.381-43.381 10.607-10.606 32.774 32.774 38.15-38.15 10.607 10.606z"/><path d="m174.441 104.537h160.879v21.851h-160.879z"/></g><path d="m463.917 306.857c-2.633 0-5.115-1.229-6.712-3.322l-201.209-263.871-201.2 263.871c-1.597 2.094-4.079 3.323-6.712 3.323h-.01c-14.141 0-22.155-16.205-13.581-27.453l207.921-272.679c6.832-8.968 20.331-8.968 27.173 0l207.922 272.678c8.574 11.248.55 27.453-13.592 27.453z" fill="#4e5959"/><g fill="#333d3d"><path d="m53.959 279.404 207.921-272.678c1.12-1.47 2.432-2.675 3.852-3.663-7.246-5.039-17.605-3.835-23.317 3.663l-207.922 272.678c-8.574 11.249-.56 27.453 13.582 27.453h.01c2.633 0 5.115-1.229 6.712-3.323l1.011-1.327c-5.908-5.637-7.557-15.316-1.849-22.803z"/><path d="m265.728 26.9-9.733 12.764 201.21 263.871c1.596 2.094 4.079 3.323 6.712 3.323 4.73 0 8.77-1.819 11.739-4.653z"/></g><g><path d="m272.142 242.309h-32.283c-9.438 0-17.089-7.651-17.089-17.089v-71.744c0-9.438 7.651-17.089 17.089-17.089h32.283c9.438 0 17.089 7.651 17.089 17.089v71.744c-.001 9.438-7.652 17.089-17.089 17.089z" fill="#598f98"/><path d="m272.141 126.387h-32.283c-14.937 0-27.089 12.152-27.089 27.089v71.744c0 14.937 12.152 27.089 27.089 27.089h32.283c14.937 0 27.089-12.152 27.089-27.089v-71.744c0-14.937-12.152-27.089-27.089-27.089zm7.089 27.089v28.37h-15.73v-35.458h8.641c3.909-.001 7.089 3.18 7.089 7.088zm-39.371-7.089h8.642v35.458h-15.73v-28.37c-.001-3.907 3.179-7.088 7.088-7.088zm-7.089 78.833v-28.374h15.73v35.463h-8.642c-3.908 0-7.088-3.18-7.088-7.089zm39.371 7.089h-8.641v-35.463h15.73v28.374c0 3.909-3.18 7.089-7.089 7.089z" fill="#4e5959"/><g fill="#333d3d"><path d="m288.94 225.22v-28.374h-9.71v28.374c0 3.545-2.618 6.481-6.02 7v.089h8.642c3.908 0 7.088-3.18 7.088-7.089z"/><path d="m279.23 153.476v28.37h9.71v-28.37c0-3.909-3.18-7.089-7.089-7.089h-8.642v.089c3.403.519 6.021 3.456 6.021 7z"/><path d="m258.21 232.309v-35.463h-9.71v35.373c.35.053.705.09 1.069.09z"/><path d="m222.48 225.22v-71.744c0-14.937 12.152-27.089 27.089-27.089h-9.71c-14.937 0-27.089 12.152-27.089 27.089v71.744c0 14.937 12.152 27.089 27.089 27.089h9.71c-14.937 0-27.089-12.152-27.089-27.089z"/><path d="m258.21 146.387h-8.641c-.364 0-.719.036-1.069.09v35.369h9.71z"/></g></g></g><g><path d="m172.062 446.541h-32.283c-9.438 0-17.089-7.651-17.089-17.089v-71.744c0-9.438 7.651-17.089 17.089-17.089h32.283c9.438 0 17.089 7.651 17.089 17.089v71.744c0 9.438-7.651 17.089-17.089 17.089z" fill="#598f98"/><path d="m172.062 330.62h-32.283c-14.937 0-27.089 12.152-27.089 27.089v71.744c0 14.937 12.152 27.089 27.089 27.089h32.283c14.937 0 27.089-12.152 27.089-27.089v-71.744c0-14.938-12.152-27.089-27.089-27.089zm7.089 27.088v28.37h-15.73v-35.458h8.641c3.909 0 7.089 3.18 7.089 7.088zm-39.372-7.088h8.642v35.458h-15.73v-28.37c0-3.908 3.18-7.088 7.088-7.088zm-7.088 78.832v-28.374h15.73v35.463h-8.642c-3.908 0-7.088-3.18-7.088-7.089zm39.371 7.089h-8.641v-35.463h15.73v28.374c0 3.909-3.18 7.089-7.089 7.089z" fill="#4e5959"/><g fill="#333d3d"><path d="m188.861 429.452v-28.374h-9.71v28.374c0 3.545-2.618 6.481-6.02 7v.089h8.642c3.908 0 7.088-3.18 7.088-7.089z"/><path d="m179.151 357.708v28.37h9.71v-28.37c0-3.909-3.18-7.089-7.089-7.089h-8.642v.089c3.403.519 6.021 3.456 6.021 7z"/><path d="m158.131 436.541v-35.463h-9.71v35.373c.35.053.705.09 1.069.09z"/><path d="m122.401 429.452v-71.744c0-14.937 12.152-27.089 27.089-27.089h-9.71c-14.937 0-27.089 12.152-27.089 27.089v71.744c0 14.937 12.152 27.089 27.089 27.089h9.71c-14.938 0-27.089-12.152-27.089-27.089z"/><path d="m158.131 350.62h-8.641c-.364 0-.719.036-1.069.09v35.369h9.71z"/></g><g><path d="m112.69 348.12v90.92c0 9.13-6.98 16.62-15.9 17.43-7.78-6.18-15.19-12.81-22.19-19.84-1.13-1.13-2.24-2.27-3.35-3.43v-85.08c0-9.67 7.84-17.5 17.5-17.5h6.44c9.67 0 17.5 7.83 17.5 17.5z" fill="#e89f4b"/><path d="m80.77 348.12v90.92c0 1.38.16 2.72.46 4-2.25-2.09-4.46-4.23-6.63-6.41-1.13-1.13-2.24-2.27-3.35-3.43v-85.08c0-9.67 7.84-17.5 17.51-17.5h6.43c.52 0 1.03.02 1.54.07-8.94.78-15.96 8.28-15.96 17.43z" fill="#d88330"/></g><g><path d="m223.087 456.541h-6.435c-9.665 0-17.501-7.835-17.501-17.501v-90.92c0-9.665 7.835-17.501 17.501-17.501h6.435c9.665 0 17.501 7.835 17.501 17.501v90.92c-.001 9.666-7.836 17.501-17.501 17.501z" fill="#e89f4b"/><path d="m224.631 456.47c-.51.05-1.02.07-1.54.07h-6.43c-9.67 0-17.51-7.83-17.51-17.5v-90.92c0-9.67 7.84-17.5 17.51-17.5h6.43c.52 0 1.03.02 1.54.07-8.94.78-15.96 8.28-15.96 17.43v90.92c0 9.15 7.02 16.65 15.96 17.43z" fill="#d88330"/></g></g><g><path d="m366.54 446.541h-32.283c-9.438 0-17.089-7.651-17.089-17.089v-71.744c0-9.438 7.651-17.089 17.089-17.089h32.283c9.438 0 17.089 7.651 17.089 17.089v71.744c0 9.438-7.651 17.089-17.089 17.089z" fill="#598f98"/><path d="m366.54 330.62h-32.283c-14.937 0-27.089 12.152-27.089 27.089v71.744c0 14.937 12.152 27.089 27.089 27.089h32.283c14.937 0 27.089-12.152 27.089-27.089v-71.744c-.001-14.938-12.152-27.089-27.089-27.089zm7.088 27.088v28.37h-15.73v-35.458h8.641c3.909 0 7.089 3.18 7.089 7.088zm-39.371-7.088h8.642v35.458h-15.73v-28.37c-.001-3.908 3.179-7.088 7.088-7.088zm-7.089 78.832v-28.374h15.73v35.463h-8.642c-3.908 0-7.088-3.18-7.088-7.089zm39.372 7.089h-8.641v-35.463h15.73v28.374c-.001 3.909-3.181 7.089-7.089 7.089z" fill="#4e5959"/><g fill="#333d3d"><path d="m383.339 429.452v-28.374h-9.71v28.374c0 3.545-2.618 6.481-6.02 7v.089h8.642c3.907 0 7.088-3.18 7.088-7.089z"/><path d="m373.628 357.708v28.37h9.71v-28.37c0-3.909-3.18-7.089-7.089-7.089h-8.642v.089c3.403.519 6.021 3.456 6.021 7z"/><path d="m352.608 436.541v-35.463h-9.71v35.373c.35.053.705.09 1.069.09z"/><path d="m316.878 429.452v-71.744c0-14.937 12.152-27.089 27.089-27.089h-9.71c-14.937 0-27.089 12.152-27.089 27.089v71.744c0 14.937 12.152 27.089 27.089 27.089h9.71c-14.937 0-27.089-12.152-27.089-27.089z"/><path d="m352.608 350.62h-8.641c-.364 0-.719.036-1.069.09v35.369h9.71z"/></g><g><path d="m289.667 456.541h-6.435c-9.665 0-17.501-7.835-17.501-17.501v-90.92c0-9.665 7.835-17.501 17.501-17.501h6.435c9.665 0 17.501 7.835 17.501 17.501v90.92c0 9.666-7.835 17.501-17.501 17.501z" fill="#e89f4b"/><path d="m291.212 456.47c-.51.05-1.02.07-1.54.07h-6.43c-9.67 0-17.51-7.83-17.51-17.5v-90.92c0-9.67 7.84-17.5 17.51-17.5h6.43c.52 0 1.03.02 1.54.07-8.94.78-15.96 8.28-15.96 17.43v90.92c0 9.15 7.02 16.65 15.96 17.43z" fill="#d88330"/></g><g><path d="m435.06 348.12v90.83c-6.33 6.2-12.99 12.07-19.94 17.59h-3.99c-9.67 0-17.5-7.83-17.5-17.5v-90.92c0-9.67 7.83-17.5 17.5-17.5h6.43c9.67 0 17.5 7.83 17.5 17.5z" fill="#e89f4b"/><path d="m415.93 455.89c-.27.22-.54.43-.81.65h-3.98c-9.67 0-17.51-7.83-17.51-17.5v-90.92c0-9.67 7.84-17.5 17.51-17.5h6.43c.52 0 1.03.02 1.54.07-8.94.78-15.96 8.28-15.96 17.43v90.92c0 8.03 5.41 14.79 12.78 16.85z" fill="#d88330"/></g></g><g fill="#333d3d"><path d="m399.83 467.79c-8.01 5.46-16.35 10.47-24.99 15h-237.68c-8.64-4.53-16.98-9.54-24.99-15z"/><path d="m248.302 298.183h15v177.103h-15z"/><g><path d="m465.24 298.18v105.35c-1.93 2.73-3.92 5.43-5.95 8.08-2.91 3.8-5.93 7.51-9.05 11.14v-124.57z"/><path d="m61.76 298.18v124.57c-3.12-3.63-6.14-7.34-9.05-11.14-2.03-2.65-4.02-5.35-5.95-8.08v-105.35z"/></g></g></g></svg>